<svg id="Laag_1" data-name="Laag 1" xmlns="http://www.w3.org/2000/svg" xmlns:xlink="http://www.w3.org/1999/xlink" viewBox="0 0 536.12 410.91"><defs><style>.cls-1,.cls-10,.cls-7,.cls-8,.cls-9{fill:none;}.cls-1{stroke:#000;}.cls-1,.cls-10,.cls-12,.cls-2,.cls-4,.cls-7,.cls-8,.cls-9{stroke-miterlimit:10;}.cls-2,.cls-3{fill:#fff;}.cls-2{stroke:#fff;}.cls-12,.cls-4,.cls-5{fill:#1d1d1b;}.cls-12,.cls-4{stroke:#1d1d1b;}.cls-6{fill:url(#Naamloos_verloop_9);}.cls-10,.cls-12,.cls-7,.cls-8,.cls-9{stroke-width:2px;}.cls-7{stroke:url(#Naamloos_verloop_9-2);}.cls-8{stroke:url(#Naamloos_verloop_9-3);}.cls-9{stroke:url(#Naamloos_verloop_9-4);}.cls-10{stroke:url(#Naamloos_verloop_9-5);}.cls-11{fill:#2fac66;}</style><linearGradient id="Naamloos_verloop_9" x1="326.2" y1="255.8" x2="324.23" y2="405.9" gradientUnits="userSpaceOnUse"><stop offset="0" stop-color="#2581c4"/><stop offset="0" stop-color="#36a9e1"/><stop offset="0.08" stop-color="#35a9d6"/><stop offset="0.51" stop-color="#32aba0"/><stop offset="0.83" stop-color="#30ac7e"/><stop offset="1" stop-color="#2fac71"/></linearGradient><linearGradient id="Naamloos_verloop_9-2" x1="348.5" y1="401.16" x2="352.48" y2="401.16" gradientTransform="translate(706.27 4.69) rotate(83.05)" xlink:href="#Naamloos_verloop_9"/><linearGradient id="Naamloos_verloop_9-3" x1="355.98" y1="406.77" x2="359.96" y2="406.77" gradientTransform="translate(718.42 2.19) rotate(83.05)" xlink:href="#Naamloos_verloop_9"/><linearGradient id="Naamloos_verloop_9-4" x1="348.81" y1="411.66" x2="352.8" y2="411.66" gradientTransform="translate(716.98 13.6) rotate(83.05)" xlink:href="#Naamloos_verloop_9"/><linearGradient id="Naamloos_verloop_9-5" x1="341.77" y1="406.09" x2="345.75" y2="406.09" gradientTransform="translate(705.25 15.7) rotate(83.05)" xlink:href="#Naamloos_verloop_9"/></defs><path d="M478.87,157.9V146.14c0-.26,0-.52,0-.77a4,4,0,0,1,2.12-3.83,46,46,0,0,1,13.13-5.3,15.12,15.12,0,0,1,8.8.51,12.88,12.88,0,0,1,4,2.37c2.47,2.21,3.16,5.1,2.6,8.34a14.47,14.47,0,0,1-5.18,8.88c-3.46,2.86-7.1,5.49-10.65,8.23-1.34,1-2.63,2.14-4,3.17s-2.46,1.78-3.69,2.67-2.39,1.74-3.59,2.61a8.51,8.51,0,0,1-.95.66,1.4,1.4,0,0,1-2.28-1.08,30.43,30.43,0,0,1-.38-4.48c-.06-3.41,0-6.82,0-10.22Zm5.42-11.32c0,.39-.07.61-.07.82q0,7,0,13.95a12.52,12.52,0,0,0,.15,1.35c.47-.31.79-.49,1.09-.71,4.09-2.94,8.19-5.87,12.26-8.84a20.44,20.44,0,0,0,2.42-2.23,6,6,0,0,0,1.44-2.51c.78-2.74-.46-6.17-4-6.37a8.39,8.39,0,0,0-3.27.35c-2.78,1-5.52,2.1-8.26,3.21A13.62,13.62,0,0,0,484.29,146.58Z" transform="translate(-37.42 -48.68)"/><path d="M545,135.83c2.67-.43,5.35-1,8.06-.43a17.25,17.25,0,0,1,10.62,6.17c4.32,5.46,2.62,12.26-3.12,16a3.2,3.2,0,0,1-4.7-.71c-.49-.59-.93-1.22-1.36-1.85a18.75,18.75,0,0,0-10.89-7.61c-1.06-.3-2.12-.6-3.14-1a5.34,5.34,0,0,1-2.58-1.93,4.34,4.34,0,0,1,.84-5.91,12.17,12.17,0,0,1,5.12-2.51C544.23,136,544.61,135.91,545,135.83Zm13.84,18.28a5,5,0,0,0,3.32-4.5,7,7,0,0,0-2.74-6.43c-3.49-2.66-7.29-4.63-12-4.19a9,9,0,0,0-5.16,2l.15,1.68c1.3,1.06,2.8,1.15,4.2,1.46a13.12,13.12,0,0,1,5.91,2.92,20.24,20.24,0,0,1,3.4,3.94c.53.78,1.07,1.55,1.63,2.3A1.53,1.53,0,0,0,558.84,154.11Z" transform="translate(-37.42 -48.68)"/><path d="M567.05,221.7a1.73,1.73,0,0,1-1.57-1.32,15.69,15.69,0,0,1-.65-3.1c-.22-3.22-.28-6.44-.5-9.66a59.49,59.49,0,0,1,.21-9.44c0-.4,0-.8,0-1.35-.41.21-.75.4-1.1.56-1,.46-2.07.91-3.12,1.34a2.07,2.07,0,0,1-.86.12,1.5,1.5,0,0,1-1.49-2,4.27,4.27,0,0,1,.62-1.15,13.66,13.66,0,0,1,2.92-3c1.41-1.06,2.7-2.26,4.1-3.33,1-.72,2-1.33,3-2a4.55,4.55,0,0,1,.89-.43,1.94,1.94,0,0,1,2.76,1.47,7.93,7.93,0,0,1-.18,4,19.39,19.39,0,0,1-1.35,3.46,7.94,7.94,0,0,0-.92,3.69c0,3.92.06,7.85-.05,11.77-.06,2.26-.36,4.52-.63,6.78a10.14,10.14,0,0,1-.67,2.31A1.71,1.71,0,0,1,567.05,221.7Z" transform="translate(-37.42 -48.68)"/><path d="M567.91,165.75c-.51.8-1,1.43-1.31,2.1-1.71,3.27-3.33,6.57-5.09,9.82-1,1.92-2.24,3.79-3.45,5.65-1.07,1.63-2.22,3.24-3.4,4.82-.67.89-1.47,1.7-2.23,2.54a2.92,2.92,0,0,1-.65.49,2.26,2.26,0,0,1-2.37.33,1.73,1.73,0,0,1-.81-2.14,9,9,0,0,1,2.06-3.61c1.46-1.72,3-3.39,4.41-5.14A49,49,0,0,0,562.42,168q1-2.36,2-4.69a5.25,5.25,0,0,1,.79-1.32,2.35,2.35,0,0,1,2.59-.72,5.21,5.21,0,0,1,3.26,2c3.94,5.39,3,12-1.63,16.64a14.14,14.14,0,0,1-3.9,2.37,1.83,1.83,0,0,1-.47.14,2.18,2.18,0,0,1-2-.39,1.47,1.47,0,0,1-.22-1.89,10.77,10.77,0,0,1,1.36-1.76c1.09-1.16,2.23-2.27,3.34-3.42a2.84,2.84,0,0,0,.54-.71,12.21,12.21,0,0,0,1.4-5A4.73,4.73,0,0,0,567.91,165.75Z" transform="translate(-37.42 -48.68)"/><path d="M534.82,221.81c-1.48,0-2.06-.41-2.1-1.66-.1-3-.2-6-.26-9a19.59,19.59,0,0,1,.86-6.21,14.33,14.33,0,0,1,1-2.46,6.81,6.81,0,0,1,3.92-3c2.55-.94,6,1.14,6,4A5.3,5.3,0,0,1,543,207a13.15,13.15,0,0,1-6.08,3.86c-.08,1.59-.14,3.25-.23,4.91-.06,1.21-.1,2.42-.26,3.62A2.91,2.91,0,0,1,534.82,221.81Zm4.87-20a4.56,4.56,0,0,0-2.35,5.21,20.25,20.25,0,0,0,1.89-1.53,6.59,6.59,0,0,0,1.21-1.73C540.84,202.93,540.59,202.42,539.69,201.82Z" transform="translate(-37.42 -48.68)"/><path d="M522.67,216.84c-.73.06-1.46.16-2.18.16a13.94,13.94,0,0,1-3-.14,2.26,2.26,0,0,1-1.48-3.38,7.34,7.34,0,0,1,2.91-3.06c1-.63,2.1-1.19,3.17-1.76a5.35,5.35,0,0,1,2.74-.67,1.45,1.45,0,0,1,.52,2.86c-.57.23-1.2.33-1.78.53-1.18.39-2.36.78-3.51,1.24-.79.32-.88.5-1.24,1.44,1-.13,1.85-.24,2.73-.38a7,7,0,0,1,3,.13,2.64,2.64,0,0,1,1.56,4.23,5.32,5.32,0,0,1-2.27,1.85,18.45,18.45,0,0,1-5.91,1.59c-1.63.2-3.28.26-4.91.5a13.19,13.19,0,0,1-3.25.38,3.82,3.82,0,0,1-1.07-.19,1.14,1.14,0,0,1-.41-1.95,3.63,3.63,0,0,1,1.51-.83c1.1-.25,2.24-.35,3.36-.51.43-.06.87-.1,1.3-.17,1.84-.29,3.68-.7,5.53-.82a5.32,5.32,0,0,0,2.71-.81Z" transform="translate(-37.42 -48.68)"/><path d="M526.26,140.55l2.55,2.78a6.06,6.06,0,0,1,.47.54,1.58,1.58,0,0,1,0,2,1.35,1.35,0,0,1-1.9.23,16.31,16.31,0,0,1-5.18-5.55c-.53-.94-.07-1.79,1-2.23a36.28,36.28,0,0,0,3.42-1.56,5,5,0,0,0,1.08-1.07,1.51,1.51,0,0,0-1.36-1.13,20.27,20.27,0,0,0-6.28-.07c.16,1.48.34,2.88.44,4.29q.22,3.24.35,6.48a2.24,2.24,0,0,1-1.51,2.49,2.1,2.1,0,0,1-1.61-1.56c-1.24-3.44-1.64-7.08-2.28-10.65a11.71,11.71,0,0,1,.15-2.61,6.22,6.22,0,0,1,3.86-1.79c2.27-.21,4.55-.23,6.82-.28a6.05,6.05,0,0,1,2.21.27,7.59,7.59,0,0,1,2.52,1.4,3.35,3.35,0,0,1,.29,4.78,9.26,9.26,0,0,1-2.24,1.89A28.94,28.94,0,0,1,526.26,140.55Z" transform="translate(-37.42 -48.68)"/><path class="cls-1" d="M387,180.38" transform="translate(-37.42 -48.68)"/><path class="cls-1" d="M362.36,166.07" transform="translate(-37.42 -48.68)"/><path d="M486.63,229.32" transform="translate(-37.42 -48.68)"/><path d="M477.74,186.81V225h14.6l8.57-6.5,25.58-19.4c3.28-2.49,6.74-4.75,9.91-7.39s6.22-5.78,9.27-8.7c0,0,13.29-14.45-3.79-26.18a23.66,23.66,0,0,0-21.09-3c-7.93,2.76-13.44,10.2-19.77,15.39-1,.84-2.08,1.68-3.15,2.48L485,181.47" transform="translate(-37.42 -48.68)"/><ellipse class="cls-2" cx="513.48" cy="178.14" rx="0.71" ry="1" transform="translate(237.07 617.6) rotate(-83.05)"/><ellipse class="cls-2" cx="520.96" cy="183.75" rx="0.71" ry="1" transform="translate(238.08 629.95) rotate(-83.05)"/><ellipse class="cls-2" cx="513.79" cy="188.64" rx="0.71" ry="1" transform="translate(226.93 627.14) rotate(-83.05)"/><ellipse class="cls-2" cx="506.75" cy="183.07" rx="0.71" ry="1" transform="translate(226.26 615.25) rotate(-83.05)"/><path d="M38.88,255.79V155.94l.13-.11a.12.12,0,0,1,.08,0,5.67,5.67,0,0,1,.58,0h97.21a1.34,1.34,0,0,1,.27.07l.07.08a.35.35,0,0,1,.05.08,1.55,1.55,0,0,1,0,.29q0,49.44,0,98.89a4.22,4.22,0,0,1-.06.54,4.7,4.7,0,0,1-.63.13c-.26,0-.52,0-.78,0H40.29C39.85,255.83,39.41,255.81,38.88,255.79ZM46.24,249c.53,0,.91.06,1.29.07l2.8.12c.81,0,1.61.11,2.41.08,2.16-.09,4.32-.24,6.48-.33,1.07-.05,2.13,0,3.2,0a2.37,2.37,0,0,0,1.37-.38A62.73,62.73,0,0,0,70.25,244q11.27-9.33,22.55-18.63a69.38,69.38,0,0,0,9.49-9c2.94-3.54,5.94-7,8.53-10.83a33.64,33.64,0,0,0,4.22-8.38,13,13,0,0,0,.65-6.11A20,20,0,0,0,109.41,179c-4.62-4.25-9.91-4.79-15.51-2.55a27.84,27.84,0,0,0-9.32,6.42c-2.62,2.63-5.16,5.34-7.82,7.93a26.94,26.94,0,0,1-3.85,3.14q-5.18,3.47-10,7.41c-2.77,2.27-5.43,4.68-8.3,6.79a49.94,49.94,0,0,0-7.11,6.36,5.71,5.71,0,0,1-.55.55,2,2,0,0,0-.72,1.71q0,15.57,0,31.12ZM51,185.68H50.8c0,.95,0,1.9,0,2.85q.09,4.53.22,9.05a4.38,4.38,0,0,0,.27,1.34,1.18,1.18,0,0,0,1.68.82,4.76,4.76,0,0,0,1.09-.63c1.1-.75,2.19-1.52,3.28-2.27s2.43-1.63,3.61-2.49,2.3-1.8,3.47-2.67c3.34-2.47,6.75-4.84,10-7.41a12.83,12.83,0,0,0,5-8.19,7.39,7.39,0,0,0-3.2-7.86,13.52,13.52,0,0,0-10.45-2.1A42,42,0,0,0,52.85,171,3.31,3.31,0,0,0,51,174.17c0,.19,0,.39,0,.59Zm60.41-22.24h-1.16a9.7,9.7,0,0,0-5,1.29,4.18,4.18,0,0,0-1.53,5.92,5.31,5.31,0,0,0,1.79,1.77c.84.5,1.69,1,2.54,1.44a18.31,18.31,0,0,1,5.9,5,19.31,19.31,0,0,1,2.31,4.2,19.34,19.34,0,0,0,1.09,2.3,2.55,2.55,0,0,0,3,1.31,5.44,5.44,0,0,0,1.1-.36,11.1,11.1,0,0,0,3.31-2.19,9.78,9.78,0,0,0,3.1-7.38,10,10,0,0,0-1-4.27,15.73,15.73,0,0,0-10.23-8.53A18.83,18.83,0,0,0,111.37,163.44Zm11.79,60.47c0,.68,0,1.17,0,1.65a50.35,50.35,0,0,0-.17,7.57c.17,3,.26,6,.42,8.94a8.13,8.13,0,0,0,.67,3.15,1.36,1.36,0,0,0,1.24.94,1.27,1.27,0,0,0,1.22-.95,15.88,15.88,0,0,0,.67-2.26,31.54,31.54,0,0,0,.53-6.06c.07-3.51,0-7,0-10.53a6.24,6.24,0,0,1,.77-3.11,10.48,10.48,0,0,0,.75-1.59,9.48,9.48,0,0,0,.64-5.1,1.66,1.66,0,0,0-2.39-1.36,5.12,5.12,0,0,0-.78.38c-.9.58-1.83,1.12-2.67,1.78-1.29,1-2.48,2.09-3.77,3.08a12.54,12.54,0,0,0-2.47,2.62c-.45.63-.81,1.33-.31,2.08a1.62,1.62,0,0,0,2,.46,18.93,18.93,0,0,0,2.13-.91C122.15,224.47,122.59,224.21,123.16,223.91ZM126.59,195a4.72,4.72,0,0,1,1.14,3.46,13,13,0,0,1-1.28,4.41,3.2,3.2,0,0,1-.56.8c-.92,1-1.89,2-2.79,3a7.93,7.93,0,0,0-1.16,1.67,1.35,1.35,0,0,0,.24,1.64,1.4,1.4,0,0,0,1.53.34c.09,0,.19,0,.28-.08a9.65,9.65,0,0,0,3.65-2.5,12.81,12.81,0,0,0,3-10.41,11.73,11.73,0,0,0-1.84-4.93,4.23,4.23,0,0,0-2.48-1.58,1.38,1.38,0,0,0-1.5.46,5.59,5.59,0,0,0-.83,1.31q-.93,2.1-1.79,4.25a46.57,46.57,0,0,1-6.34,11.34c-1.19,1.54-2.47,3-3.71,4.54a10.22,10.22,0,0,0-1.65,2.77,2.55,2.55,0,0,0-.16,1.72,1.24,1.24,0,0,0,1.3.95,2.27,2.27,0,0,0,1.4-.61,10.15,10.15,0,0,0,2.09-2.43c.84-1.25,1.65-2.51,2.51-3.74a48,48,0,0,0,3.77-6.42c1.32-2.7,2.67-5.38,4-8.07C125.76,196.33,126.15,195.77,126.59,195ZM105.12,239.5a6.49,6.49,0,0,0,1.61,4.61,8.36,8.36,0,0,0,4.52,2.67,5.62,5.62,0,0,0,2.38,0,6.16,6.16,0,0,0,4.55-4.27,8.51,8.51,0,0,0-.17-6.14c-1.28-3.33-2.86-6.52-4.34-9.76a5.32,5.32,0,0,0-.53-.93c-.55-.75-1.17-.78-1.76-.06a10.41,10.41,0,0,0-1.1,1.61c-1.34,2.47-2.65,5-4,7.42A11,11,0,0,0,105.12,239.5Zm-6.42-1.73a12.08,12.08,0,0,0,5.14-3.56,6.25,6.25,0,0,0,1.37-3,4.3,4.3,0,0,0-2.91-4.85,3.28,3.28,0,0,0-1.61-.1,6,6,0,0,0-4.21,3.31,15.2,15.2,0,0,0-1.4,5.59,98.66,98.66,0,0,0,.06,12.28,1.31,1.31,0,0,0,.94,1.24,1.19,1.19,0,0,0,1.46-.44,3.74,3.74,0,0,0,.77-2c.1-1,.16-2,.2-2.94C98.59,241.48,98.63,239.64,98.7,237.77Zm-10.61,5.88,0,.22a3,3,0,0,1-2.21.76,5.1,5.1,0,0,0-.78,0c-1.46.25-2.92.52-4.38.74-1.08.17-2.18.26-3.26.41a3.68,3.68,0,0,0-2,.83,1.05,1.05,0,0,0-.34,1.06,1,1,0,0,0,.79.77,2.78,2.78,0,0,0,.86.07c1.06-.1,2.11-.24,3.17-.32a40.7,40.7,0,0,0,6.41-.9,9.51,9.51,0,0,0,3.87-1.71,2.87,2.87,0,0,0,1.2-3,2.68,2.68,0,0,0-2.76-1.75c-1.15,0-2.3.21-3.46.31a4,4,0,0,1-.66,0,1.65,1.65,0,0,1,1-1.22,20.18,20.18,0,0,1,2.16-.85c.79-.27,1.62-.43,2.41-.7s1.32-.91,1.17-1.56-.83-1.1-1.76-1a1.85,1.85,0,0,0-.47.08,14.09,14.09,0,0,0-1.72.63c-.87.44-1.71.92-2.54,1.43a6.69,6.69,0,0,0-2.64,2.81,2.05,2.05,0,0,0,.18,2.23,2,2,0,0,0,1.68.83c1,0,2.06-.06,3.09-.09Zm3.25-74.09c.61-.28,1.23-.55,1.83-.85a4.61,4.61,0,0,0,1.73-1.4,2.34,2.34,0,0,0-.18-3.13,3.48,3.48,0,0,0-2.6-1.12c-1.65,0-3.29.09-4.94.1a5.57,5.57,0,0,0-2.56.76,1.15,1.15,0,0,0-.59.71,5.69,5.69,0,0,0-.06,1.84c.26,1.69.58,3.36.94,5a18.12,18.12,0,0,0,.7,2.24,1,1,0,0,0,1,.69,1.12,1.12,0,0,0,.87-.83,3.24,3.24,0,0,0,.11-1c-.06-1.4-.14-2.81-.24-4.21-.07-1-.19-1.94-.29-3a17.43,17.43,0,0,1,4.33,0c.39.05.88.17,1,.67s-.33.76-.69.95c-.78.39-1.57.74-2.38,1.07s-1,.84-.64,1.52A11.41,11.41,0,0,0,92,173.24a1,1,0,0,0,1.42,0,1.07,1.07,0,0,0-.13-1.5c-.08-.1-.18-.18-.27-.28Z" transform="translate(-37.42 -48.68)"/><path d="M245,155.6c.16.83.2,98.88,0,100.14a8.37,8.37,0,0,1-.9.08c-1.22,0-2.45,0-3.68,0-1.58,0-3.16.14-4.74.19-.9,0-1.81,0-2.71,0-4.69-.06-9.37-.17-14.06-.18-8.07,0-16.15-.06-24.23,0-5,0-10-.27-15-.29-4.52,0-9,.14-13.56.23-.62,0-1.23,0-1.85,0H146.53c0-.46-.09-.84-.09-1.22,0-3.48,0-6.95,0-10.43,0-8.57,0-17.14,0-25.71,0-4.11.22-8.21.32-12.31a16,16,0,0,0-.3-4.31,4.83,4.83,0,0,1-.06-1.08q0-19.95,0-39.89c0-1.48,0-3,0-4.43a4.29,4.29,0,0,1,.09-.69c.08-.09.09-.12.12-.13l.09,0c.16,0,.32-.05.48-.05h97.32C244.65,155.54,244.78,155.58,245,155.6Zm-49.71,77.06c-.24-.33-.44-.63-.66-.91-2.12-2.69-4.21-5.4-6.37-8.06-4.47-5.54-8.68-11.27-12.88-17-1.61-2.21-3.34-4.34-5-6.5a5.86,5.86,0,0,0-.56-.55c-.27.17-.49.29-.7.45-2.17,1.65-4.37,3.26-6.5,5-2.43,2-4.79,4-7.21,6-2.26,1.85-4.55,3.68-6.84,5.49a1.88,1.88,0,0,0-.78,1.67c0,3.25,0,6.5,0,9.75,0,5.62,0,11.23,0,16.84,0,2.82,0,5.65,0,8.47,0,.38,0,.76.06,1.14a2.6,2.6,0,0,0,.46.1H169.4a2.29,2.29,0,0,0,1.77-.61c.5-.5,1.08-.94,1.62-1.4,3.54-3,7.09-6,10.62-9,.94-.8,1.8-1.7,2.73-2.52,2.11-1.83,4.26-3.61,6.35-5.47C193.44,234.63,194.27,233.66,195.25,232.66Zm1.58-.29c0,1.24,0,2.49,0,3.74a2,2,0,0,1-.63,1.67q-6.16,5.49-12.28,11c-1.76,1.59-3.49,3.22-5.23,4.84-.21.2-.55.36-.46.85,1,0,2-.06,3,0a3.58,3.58,0,0,0,2.43-.77,89.68,89.68,0,0,0,9.13-7.62c5.78-5.4,11.52-10.84,17.29-16.26a6.17,6.17,0,0,1,.58-.39c.09.52.15.92.22,1.33s.14,1,.26,1.44c.21.83.52,1.63.68,2.46a8.1,8.1,0,0,0,1.43,3.09c1.8,2.53,3.55,5.09,5.38,7.6a9.68,9.68,0,0,0,1.75,1.81c1.36,1.08,1.46,1,2.87.06a21.85,21.85,0,0,0,4.05-3.93,48.45,48.45,0,0,0,5.95-8.25,9.79,9.79,0,0,0,1.22-3.6,15.89,15.89,0,0,0-1-7.54,6.61,6.61,0,0,0-2.22-3.16,3.76,3.76,0,0,1-.69-.69,5.34,5.34,0,0,0-2.41-1.59c-.7-.25-1.4-.5-2.11-.73a11.14,11.14,0,0,0-3.13-.61,11.69,11.69,0,0,1-1.61-.26c.61-.63,1.05-1.13,1.54-1.59a36.32,36.32,0,0,0,6.4-8.37,38.86,38.86,0,0,0,3-6.6,17,17,0,0,0,1.28-6.72c-.09-1.44-.17-2.88-.25-4.32-.06-1.21-.08-2.43-.19-3.63a14.15,14.15,0,0,0-1.26-4.63c-.79-1.73-1.69-3.4-2.59-5.07a17,17,0,0,0-5.11-5.7,3.33,3.33,0,0,0-.93-.53,14.73,14.73,0,0,1-3.2-1.6,10.88,10.88,0,0,0-4.21-1.41,36.78,36.78,0,0,0-9.66.29,21.86,21.86,0,0,0-9.27,3.48,32,32,0,0,0-2.87,2.15c-1.38,1.2-2.72,2.43-4.14,3.58-4.64,3.76-9.33,7.49-14,11.25-5.69,4.59-11.38,9.18-16.75,14.19-3.44,3.21-7.09,6.21-10.65,9.3a4.1,4.1,0,0,0-.56.54,1.36,1.36,0,0,0-.3,1.28,9.91,9.91,0,0,1,.13,1.46c0,.3,0,.61.09,1.11.56-.43,1-.74,1.36-1.06,1.79-1.46,3.52-3,5.38-4.36,2.6-1.9,5.11-3.9,7.59-6s4.83-3.84,7.26-5.74c.45-.36.67-.37,1,0a27.15,27.15,0,0,1,2.7,2.66c2.23,2.77,4.39,5.6,6.53,8.44,1.45,1.93,2.77,4,4.23,5.89,4,5.21,8.06,10.35,11.75,15.78a4.25,4.25,0,0,0,.44.5" transform="translate(-37.42 -48.68)"/><path d="M244.87,150.83H144.64l-.13-.13a.36.36,0,0,1,0-.09c0-.23-.06-.45-.06-.68q0-50.39,0-100.77a2.3,2.3,0,0,1,.09-.36,7.06,7.06,0,0,1,.71-.11c.32,0,.64,0,1,0h98.66a3.28,3.28,0,0,1,.14.57V150.32A2.39,2.39,0,0,1,244.87,150.83ZM145.93,50.18a3.91,3.91,0,0,0-.07.45q0,29.74,0,59.5a.12.12,0,0,0,0,.08.25.25,0,0,0,.09,0l-.16-.16,1.79-1.49c1.07-.85,2.12-1.73,3.23-2.51,2.88-2,5.61-4.22,8.28-6.5a162.4,162.4,0,0,1,16.1-12.31,25.23,25.23,0,0,0,4.3-3.5c2.61-2.69,5.27-5.33,7.86-8a41.49,41.49,0,0,1,9.35-7.28,17.89,17.89,0,0,1,10-2.6,15.38,15.38,0,0,1,8.92,3.07,22.87,22.87,0,0,1,7.85,11.22,16.7,16.7,0,0,1,.66,9.49,30.36,30.36,0,0,1-2.4,6.32,51.74,51.74,0,0,1-6.1,9.34c-2.56,3.21-5.27,6.3-7.86,9.49a38.22,38.22,0,0,1-5.28,5.21q-13.59,11.34-27.24,22.62a82.73,82.73,0,0,1-8.7,6.58s-.05.11-.07.18a1.22,1.22,0,0,0,.26.06H243a2.6,2.6,0,0,0,.39-.05s.05,0,.07,0l.07-.07c.18-1.61.11-98.33-.09-99.09Zm46.94,55.12a2.31,2.31,0,0,0,1.93-1.66,1,1,0,0,0-1.15-1.18,2.29,2.29,0,0,0-1.68,1.47A.92.92,0,0,0,192.87,105.3Zm8.63-8.36c0-.7-.3-1.14-.73-1.23a1.14,1.14,0,0,0-1.12.76,9.66,9.66,0,0,0-.29,1.42.71.71,0,0,0,.35.75.72.72,0,0,0,.89-.07A2,2,0,0,0,201.5,96.94Zm-14.92-1.28a1.33,1.33,0,0,0-1.21.67,2.48,2.48,0,0,0-.73,1.55.71.71,0,0,0,.88.76,1.53,1.53,0,0,0,1.24-2.28A5.39,5.39,0,0,1,186.58,95.66Zm6.93-6.2a3.58,3.58,0,0,0-.51-.83.79.79,0,0,0-1,.09,2,2,0,0,0-.84,1.27,1.3,1.3,0,0,0,.6,1.33c.36.18.79,0,1.12-.5A12.31,12.31,0,0,0,193.51,89.46Z" transform="translate(-37.42 -48.68)"/><path d="M38,48.8h98.79c.2.79.24,99.44,0,100.56-.39,0-.8.06-1.2.06H85.42c-7.19.53-14.4.18-21.6.24s-14.41,0-21.61,0c-1.38,0-2.75-.21-4.21-.33,0-.34-.06-.66-.06-1,0-3,.05-5.91.05-8.86,0-3.25,0-6.5-.06-9.75,0-.28.07-.59-.28-.77-.11,0-.17-.26-.18-.4a8.81,8.81,0,0,1,0-.89q0-15.61,0-31.22c0-.57-.26-1.24.4-1.68.07-.05.06-.25.06-.38,0-.32,0-.65,0-1V50.29C37.94,49.81,38,49.32,38,48.8Zm62.79,76.82c.09.35.17.57.2.79a8.21,8.21,0,0,0,1.26,3.38c.48.77.94,1.57,1.45,2.33,1.74,2.64,3.45,5.31,5.26,7.91.83,1.2,1.88,2.24,2.78,3.4a7.37,7.37,0,0,0,3.14,2.79.34.34,0,0,0,.15-.07,47.7,47.7,0,0,0,5.42-6c2-2.76,4.06-5.44,6.08-8.17a12.86,12.86,0,0,0,2.62-5.63c0-.1,0-.19.07-.29a9.64,9.64,0,0,0-.77-7c-.39-.75-.75-1.53-1.15-2.28a14.42,14.42,0,0,0-4.65-5.42,6.4,6.4,0,0,0-3.16-1.13c-.61,0-1.22,0-1.84-.07a6.91,6.91,0,0,1-1.9-.2c0-.16.06-.27.12-.33a26,26,0,0,1,3-3.24,3.37,3.37,0,0,0,.62-.63,35.14,35.14,0,0,0,5.81-10.16c.84-2.55,1.51-5.15,2.25-7.73a2.67,2.67,0,0,0,.08-.48,19.81,19.81,0,0,0-1-9.6c-1.61-4.19-3.21-8.4-6.23-11.83l-.06-.08a11.8,11.8,0,0,0-3-3.15,28.1,28.1,0,0,0-6.56-4,32.36,32.36,0,0,0-6.49-1.58,15,15,0,0,0-3.28-.05c-1.06.08-2.11.31-3.16.48a19,19,0,0,0-8.64,3.53c-2,1.55-4,3.21-5.92,4.92-2.59,2.32-5.09,4.75-7.65,7.1Q73,75.49,70.4,77.71c-1.16,1-2.43,1.85-3.55,2.87C61.77,85.22,56.34,89.41,51,93.7q-5.07,4.06-10.14,8.1a1.56,1.56,0,0,0-.67,1.4c0,2.37,0,4.73,0,7.09,0,1.28,0,2.56,0,3.84-.06,2.43-.13,4.86-.19,7.28l-.09,3c-.07,2.63-.22,5.26-.18,7.88,0,3,.29,6.09.38,9.14a37.15,37.15,0,0,0,.56,5.47c.11.6.24.76.81.74,1.84,0,3.68-.12,5.52-.16.84,0,1.68,0,2.51,0,1.52.06,3,.22,4.55.18,2.29-.05,4.58-.26,6.86-.38,1.36-.08,2.72-.1,4.07-.19,3.38-.24,6.77-.4,10.16-.34.68,0,1.36,0,2,0a2.29,2.29,0,0,0,1.51-.55c2.09-1.95,4.22-3.87,6.32-5.82s4.34-4,6.48-6.08c2.65-2.54,5.26-5.13,7.89-7.7.26-.25.52-.5.8-.72A4.16,4.16,0,0,1,100.79,125.62Z" transform="translate(-37.42 -48.68)"/><path d="M94.93,201.84a.67.67,0,0,1-.69-.76,2.28,2.28,0,0,1,1.81-1.8.69.69,0,0,1,.7.84A2.64,2.64,0,0,1,94.93,201.84Z" transform="translate(-37.42 -48.68)"/><path d="M84.64,200.1a2.38,2.38,0,0,1-.37.62,6.65,6.65,0,0,1-1.09.8.56.56,0,0,1-.79-.09,1.13,1.13,0,0,1-.18-.71,2.37,2.37,0,0,1,1.52-1.52C84.25,199.11,84.64,199.44,84.64,200.1Z" transform="translate(-37.42 -48.68)"/><path d="M88.39,195.21a.5.5,0,0,1-.48-.54,2.11,2.11,0,0,1,1.7-1.83.54.54,0,0,1,.58.52C90.26,194,89.1,195.22,88.39,195.21Z" transform="translate(-37.42 -48.68)"/><path d="M88.12,207.73a.58.58,0,0,1-.58-.85A2.36,2.36,0,0,1,89,205.54a.57.57,0,0,1,.77.6A2.2,2.2,0,0,1,88.12,207.73Z" transform="translate(-37.42 -48.68)"/><path d="M55.93,190c-.06-.69-.13-1.13-.13-1.58,0-4,0-7.94,0-11.91a1.51,1.51,0,0,1,1-1.6c1.43-.59,2.84-1.24,4.3-1.78,1.69-.62,3.4-1.22,5.14-1.68a6.11,6.11,0,0,1,2.59-.06,4.31,4.31,0,0,1,3.24,5.77,5.56,5.56,0,0,1-1.35,2.25,18.13,18.13,0,0,1-2.18,1.93c-3.82,2.68-7.68,5.33-11.52,8C56.74,189.5,56.43,189.67,55.93,190Z" transform="translate(-37.42 -48.68)"/><path d="M124.24,177.13a6.2,6.2,0,0,1-1.55,4.54,4.59,4.59,0,0,1-2,1.21c-.73.23-1.09.12-1.44-.57s-.72-1.69-1.11-2.51c-.64-1.32-1.23-2.68-2-3.93a11.28,11.28,0,0,0-5.14-4.47,9.88,9.88,0,0,1-2.89-1.56,1.55,1.55,0,0,1,.48-2.65,8.38,8.38,0,0,1,4.65-.41,12.38,12.38,0,0,1,6.3,3c.9.8,1.79,1.61,2.61,2.49A6.91,6.91,0,0,1,124.24,177.13Z" transform="translate(-37.42 -48.68)"/><path d="M115.64,239.45c-.06.49-.09,1-.19,1.46a3.13,3.13,0,0,1-4.33,2.61,3.38,3.38,0,0,1-2.37-2.35,4.46,4.46,0,0,1,.8-4.49,3.16,3.16,0,0,1,3.65-1.05,3.23,3.23,0,0,1,2.36,3c0,.26,0,.52,0,.78Z" transform="translate(-37.42 -48.68)"/><path d="M99,234c-.31-2.74.78-4.47,2.21-5.29a1.43,1.43,0,0,1,.75,1.95,5.38,5.38,0,0,1-.79,1.45A6.57,6.57,0,0,1,99,234Z" transform="translate(-37.42 -48.68)"/><path d="M173.72,213.85a2.57,2.57,0,0,1,1.31-2,1.33,1.33,0,0,1,2,1.24,2.85,2.85,0,0,1-.37,1.19,4.68,4.68,0,0,1-.66.84,1.2,1.2,0,0,1-1.47.37,1.16,1.16,0,0,1-.79-1.21C173.74,214.17,173.73,214.07,173.72,213.85Z" transform="translate(-37.42 -48.68)"/><path d="M179.92,222.15c-.1-1,.63-1.58,1.28-2.18a1,1,0,0,1,1.27,0,1.42,1.42,0,0,1,.77,1.27,2.58,2.58,0,0,1-2.27,2.14C180.11,223.36,179.89,223.13,179.92,222.15Z" transform="translate(-37.42 -48.68)"/><path d="M205.45,225.77c-.27-.24-.6-.41-.84-.66-.69-.73-1.38-1.46-2-2.24-1.68-2.07-3.39-4.12-4.88-6.36-1.21-1.82-2.58-3.54-3.93-5.25-4.12-5.26-8.28-10.5-12.42-15.75-.23-.28-.48-.54-.7-.82a2.72,2.72,0,0,1-.62-1.82c.06-1,.16-2,.17-3a1.53,1.53,0,0,1,.65-1.32c2-1.66,4.08-3.33,6.08-5a23.67,23.67,0,0,0,3.93-4.19,20.63,20.63,0,0,1,5.28-4.89,38.06,38.06,0,0,1,6.06-3.67,15.38,15.38,0,0,1,8.31-1.44c.67.09,1.36.06,2,.16a19.84,19.84,0,0,1,16.64,15,15.13,15.13,0,0,0,.53,1.47,4,4,0,0,1,.29.93,18,18,0,0,1,.19,2.74c-.11,2.69-.2,5.38-.49,8.06a14.21,14.21,0,0,1-1,3.56,46.5,46.5,0,0,1-3,6.38,22.12,22.12,0,0,1-3.34,4.33c-2.43,2.59-4.84,5.2-7.34,7.71-1.65,1.66-3.43,3.19-5.17,4.76-.72.66-1.49,1.26-2.23,1.89a1.33,1.33,0,0,0-.4.42m.16-5.34a1.82,1.82,0,0,0,.39-.12l5.66-4.94a4.6,4.6,0,0,0,.56-.68,3.68,3.68,0,0,1,.31-.38c1.21-1.22,2.43-2.43,3.63-3.66a91.66,91.66,0,0,0,7.06-8.88,9.19,9.19,0,0,0,1-1.77c.64-1.44,1.24-2.89,1.82-4.35a5,5,0,0,0,.22-1.23c.06-.52.07-1,.13-1.55.08-.75.24-1.49.29-2.24.06-.92-.05-1.85.07-2.75a13.5,13.5,0,0,0-.31-3.91,13.2,13.2,0,0,0-2.95-5.89c-.31-.41-.69-.78-1-1.18a13.35,13.35,0,0,0-3-2.89,23.73,23.73,0,0,0-7-3.19c-1.76-.42-3.55-.7-5.34-1a6,6,0,0,0-3.06.23c-1.25.44-2.49.92-3.71,1.41a21.49,21.49,0,0,0-3.77,2.4,45,45,0,0,0-7.53,6.17c-.25.26-.54.47-.8.71a1.56,1.56,0,0,0-.43.51,1.94,1.94,0,0,1-.83.93c-.4.28-.78.58-1.16.89l-5.8,4.77a5.39,5.39,0,0,0-.37.4c.16.23.29.45.45.64,1.25,1.42,2.51,2.83,3.75,4.25q4.44,5.08,8.5,10.49,6,8,11.94,15.89c.15.19.35.35.51.52" transform="translate(-37.42 -48.68)"/><path d="M224.13,220.13c1.64-.08,3.32,1,4.91,2.29a13.61,13.61,0,0,1,1.31,1.32,7,7,0,0,1,1.49,7.65,17.19,17.19,0,0,1-1.48,3.2c-1.32,2.29-2.73,4.54-4.11,6.79a9.55,9.55,0,0,1-3.76,3.15,1.3,1.3,0,0,1-1.87-.31,11,11,0,0,1-1.85-2.22.85.85,0,0,0-.3-.37,4.72,4.72,0,0,1-1.58-2,35.44,35.44,0,0,1-3.07-6,2.58,2.58,0,0,1-.18-.46c-.2-1.22-.39-2.45-.57-3.68a.56.56,0,0,1,.16-.43,1.64,1.64,0,0,0,.46-1.25,7.73,7.73,0,0,1,5.21-6.73A13.77,13.77,0,0,1,224.13,220.13ZM224,236.35a6.41,6.41,0,0,0,5.26-3.09,20.84,20.84,0,0,0,1.37-2.81,4.63,4.63,0,0,0,.1-3.45,6.31,6.31,0,0,0-3.73-4.24,6.49,6.49,0,0,0-5.35-.1c-.2.1-.43.13-.63.24a5.56,5.56,0,0,0-1.07.65,7.9,7.9,0,0,0-2.08,8.78A6.2,6.2,0,0,0,224,236.35Zm-5.65-13.44a3.8,3.8,0,0,0-1.82,1.29,9.35,9.35,0,0,0-1.83,4.89,11.11,11.11,0,0,0,2,7l4.5,7.1c.32.51.49.52,1.22,0-.25-.37-.5-.74-.73-1.13-.52-.86-1.06-1.72-1.55-2.61-.89-1.62-1.76-3.27-2.62-4.91a9.22,9.22,0,0,1-.87-1.86c-.78-3.14-.68-6.18,1.19-9C218,223.54,218.08,223.32,218.31,222.91Z" transform="translate(-37.42 -48.68)"/><path d="M149.81,76.75c0-3.83,0-7.67,0-11.51,0-.33,0-.66,0-1a3.36,3.36,0,0,1,1.79-3,45.36,45.36,0,0,1,15.87-6,15.32,15.32,0,0,1,11.62,2.58,8.61,8.61,0,0,1,3.65,9,14.85,14.85,0,0,1-5.63,9.47c-3.45,2.76-7.08,5.28-10.63,7.9-1,.73-2,1.42-3,2.13a7.25,7.25,0,0,0-.92.71A19.32,19.32,0,0,1,159,89.76c-1.88,1.21-3.75,2.44-5.63,3.66a2.27,2.27,0,0,1-1.24.47,2.21,2.21,0,0,1-2.24-2.18c-.27-4.39-.29-8.79-.18-13.18,0-.6,0-1.19,0-1.78ZM155.52,84c.39-.29.59-.44.78-.6a115.08,115.08,0,0,1,10.32-8c1-.7,2.09-1.43,3.09-2.21s1.89-1.58,2.78-2.43A6.19,6.19,0,0,0,174,68.27c1-2.85-.45-6.61-4.61-6.69a9.12,9.12,0,0,0-3.32.51c-1.83.65-3.65,1.3-5.47,2a36.47,36.47,0,0,0-3.48,1.45c-1.5.77-1.45.47-1.45,2.38,0,3.51,0,7,0,10.53C155.69,80.21,155.59,82,155.52,84Z" transform="translate(-37.42 -48.68)"/><path d="M219.62,52.28a25.06,25.06,0,0,1,6,.69,18.29,18.29,0,0,1,10.13,7.31,13.69,13.69,0,0,1,2.47,5.92,11.25,11.25,0,0,1-3.5,10.14,13.23,13.23,0,0,1-3.79,2.53l-.63.24a3.33,3.33,0,0,1-4.43-1.71c-.42-.78-.75-1.6-1.09-2.41a21.78,21.78,0,0,0-2.59-4.71,20.8,20.8,0,0,0-6.79-5.76c-1-.54-2-1.1-3-1.68a6.21,6.21,0,0,1-2-2.06,4.91,4.91,0,0,1,1.89-7C214.57,52.55,216.23,52.29,219.62,52.28Zm0,4a7.77,7.77,0,0,0-3.49.7,1.66,1.66,0,0,0-.41,2.72,5.6,5.6,0,0,0,1.71,1.09c.77.32,1.54.68,2.28,1.06a13.2,13.2,0,0,1,4.49,3.68,22.34,22.34,0,0,1,3.06,5.56c.38,1,.78,2,1.23,2.89s.79,1,1.73.66a5.14,5.14,0,0,0,2.7-2.14,7.3,7.3,0,0,0,1.06-4.7,8.33,8.33,0,0,0-2.51-5.3A52.2,52.2,0,0,0,227.53,59,13.35,13.35,0,0,0,219.6,56.25Z" transform="translate(-37.42 -48.68)"/><path d="M232,118.24c-.5.23-.82.37-1.14.53a12.27,12.27,0,0,1-3.36,1.2,2.57,2.57,0,0,1-.38.08,1.9,1.9,0,0,1-1.93-.87,1.7,1.7,0,0,1,.12-2,12.17,12.17,0,0,1,2.84-3.06c1.38-1,2.72-2.12,4.15-3.07s3.21-2,4.83-2.91a3.78,3.78,0,0,1,1-.36,2,2,0,0,1,2.59,1.56,6.31,6.31,0,0,1,.14,1.94,12.14,12.14,0,0,1-1.87,5.84,9.56,9.56,0,0,0-1.51,5.1c-.07,1.68-.16,3.35-.24,5A94.6,94.6,0,0,1,236,139.53a30.79,30.79,0,0,1-1,3.5,3.54,3.54,0,0,1-.55,1,1.55,1.55,0,0,1-2.72-.14,5.88,5.88,0,0,1-.62-1.84,13.1,13.1,0,0,1-.2-2.26c0-2.69,0-5.38,0-8.07s.2-5.44.37-8.16c.08-1.27.32-2.53.47-3.8C231.86,119.34,231.89,118.88,232,118.24Z" transform="translate(-37.42 -48.68)"/><path d="M233.18,85.73c-.38.77-.75,1.42-1,2.11q-2,4.77-3.87,9.56a55.37,55.37,0,0,1-3.53,7.32c-.92,1.59-1.78,3.2-2.71,4.78a22.57,22.57,0,0,1-1.76,2.58,5,5,0,0,1-1.49,1.22,1.62,1.62,0,0,1-2.45-1.19,3.23,3.23,0,0,1,0-1.16,8.1,8.1,0,0,1,1.25-3.07c.7-1.1,1.45-2.17,2.22-3.23A55.11,55.11,0,0,0,226.39,93c.52-1.27,1-2.57,1.42-3.87.63-1.86,1.22-3.73,1.85-5.59a10.26,10.26,0,0,1,.74-1.81,2.14,2.14,0,0,1,2.64-1,5.19,5.19,0,0,1,3.31,2.53,15,15,0,0,1-.83,17,11.42,11.42,0,0,1-4,3.1,2.42,2.42,0,0,1-1,.26,1.65,1.65,0,0,1-1.75-1.78,4,4,0,0,1,1.05-2.38c.74-.95,1.45-1.94,2.28-2.81a9.17,9.17,0,0,0,2.28-5,15.73,15.73,0,0,0,.21-2.74A4.47,4.47,0,0,0,233.18,85.73Z" transform="translate(-37.42 -48.68)"/><path d="M220.78,146.49a6.24,6.24,0,0,1-2.9-.64,11,11,0,0,1-3.56-2.33,8,8,0,0,1-2.36-6.23,13.13,13.13,0,0,1,1.49-5.65c1.54-2.81,3.05-5.63,4.61-8.43a15.51,15.51,0,0,1,1.47-2.19,1.36,1.36,0,0,1,2.46.1,6.69,6.69,0,0,1,.6,1.12c1.74,3.88,3.57,7.71,5.07,11.7a10,10,0,0,1,0,7.58,7.58,7.58,0,0,1-5.53,4.89,2.67,2.67,0,0,1-.48.08Zm3.7-9.13h-.1v-.88c0-2.47-2.58-3.86-4.33-3.67a3.33,3.33,0,0,0-2,.87,5.46,5.46,0,0,0-1.09,6.82,2,2,0,0,0,.36.46,4.5,4.5,0,0,0,1.86,1.2c2.66.87,4.46-.38,5-2.75A17.24,17.24,0,0,0,224.48,137.36Z" transform="translate(-37.42 -48.68)"/><path d="M204.62,135.38c-.08,2.13-.13,4.19-.24,6.25-.07,1.38-.2,2.75-.36,4.11a4,4,0,0,1-.86,2.06,1.49,1.49,0,0,1-2,.6,1.72,1.72,0,0,1-1.18-1.72c0-3.47-.11-7-.15-10.42a28.79,28.79,0,0,1,1-8.37,11,11,0,0,1,1.75-3.7,7.78,7.78,0,0,1,3.52-2.51,4.22,4.22,0,0,1,4.19.74,5.07,5.07,0,0,1,2.15,4.94,6.19,6.19,0,0,1-1.22,3.17,13.84,13.84,0,0,1-1.68,1.9A13.37,13.37,0,0,1,204.62,135.38Zm.47-4.75a10.45,10.45,0,0,0,2.4-2.27,6.33,6.33,0,0,0,.87-1.72,1.54,1.54,0,0,0-.77-2C205.84,125.48,204.77,127.94,205.09,130.63Z" transform="translate(-37.42 -48.68)"/><path d="M187.67,139.19c.8-.11,1.46-.24,2.13-.29,1-.07,2-.13,3-.13a3.56,3.56,0,0,1,2.06.75,2.71,2.71,0,0,1,.91,3.4,5.06,5.06,0,0,1-2.42,2.45,15.44,15.44,0,0,1-4.58,1.52,45.89,45.89,0,0,1-7,.81,2.1,2.1,0,0,0-.66.09,8.78,8.78,0,0,1-3.26.28,2.54,2.54,0,0,1-.94-.22,1.29,1.29,0,0,1-.48-2,3.42,3.42,0,0,1,1.44-.93,15,15,0,0,1,3-.57,26.1,26.1,0,0,0,3.06-.38,31,31,0,0,1,5.85-.68,3.86,3.86,0,0,0,1.76-.75,6.22,6.22,0,0,0-2.15,0,8.07,8.07,0,0,1-3-.08,2.59,2.59,0,0,1-1.75-3.89,8.18,8.18,0,0,1,3.31-3.36c.87-.5,1.75-1,2.63-1.46a7,7,0,0,1,2.74-.92,3.35,3.35,0,0,1,1.51.19,1.48,1.48,0,0,1,.35,2.61,4.48,4.48,0,0,1-1.58.69,26.63,26.63,0,0,0-4.51,1.45C188.33,138.07,188.16,138.24,187.67,139.19Z" transform="translate(-37.42 -48.68)"/><path d="M196.57,59.51c.72.81,1.4,1.56,2.06,2.32a2.6,2.6,0,0,1,.47.73,1.12,1.12,0,0,1-.26,1.19,1.14,1.14,0,0,1-1.23.36,2.27,2.27,0,0,1-.77-.4,14,14,0,0,1-3.64-3.9c-.59-1-.35-1.82.76-2.11a8.92,8.92,0,0,0,2.79-1.31,1.4,1.4,0,0,0,.6-.81c.05-.42-.41-.54-.74-.65a14.25,14.25,0,0,0-5.09,0c.13,1.15.3,2.31.38,3.47.12,1.6.19,3.21.25,4.81a3,3,0,0,1-.22,1.15,1.24,1.24,0,0,1-1.09.86,1.2,1.2,0,0,1-1.16-.75,13.54,13.54,0,0,1-.79-2.21c-.41-1.86-.79-3.72-1.08-5.6a16.64,16.64,0,0,1-.08-2.74c0-.56.44-.82.88-1.06A7.11,7.11,0,0,1,192,52c1.77,0,3.55-.08,5.32-.08a4.07,4.07,0,0,1,2.43.85,2.93,2.93,0,0,1,.45,4.59,7.39,7.39,0,0,1-2.58,1.7Z" transform="translate(-37.42 -48.68)"/><path d="M60.73,92.73c.31.36.55.62.77.9L68,102.3c5.69,7.53,11.33,15.09,17.3,22.38.39.48.77,1,1.13,1.47.49.67.45.7,0,1.35a40.63,40.63,0,0,1-6.84,6.78c-4.36,3.61-8.73,7.2-13.06,10.84a3.78,3.78,0,0,1-2.65.94c-2.81-.06-5.62-.11-8.43-.07-2.16,0-4.32.17-6.48.26-.32,0-.64,0-1,0-.9,0-1.8-.08-2.71-.08a6.54,6.54,0,0,0-3.35.44.67.67,0,0,1-.43-.75c-.06-2.56-.2-5.12-.17-7.68.06-4.59-.14-9.17-.13-13.76,0-3.55.09-7.09.13-10.63,0-1.61,0-3.22,0-4.83a1.57,1.57,0,0,1,.6-1.36c3.72-3,7.41-6.14,11.16-9.15,2.25-1.81,4.59-3.51,6.9-5.25C60.19,93,60.42,92.93,60.73,92.73Zm5.2,12a1.91,1.91,0,0,0-1.48.67,3.08,3.08,0,0,0-.69,1.79,1.72,1.72,0,0,0,.81,1.84,1.68,1.68,0,0,0,2-.11,3.18,3.18,0,0,0,1.17-1.53A1.79,1.79,0,0,0,65.93,104.75Zm6.91,8.59a1.71,1.71,0,0,0-1.53.88,6.79,6.79,0,0,0-.49,1.06,1.76,1.76,0,0,0,2,2.43,2.25,2.25,0,0,0,1.82-2.59A2.22,2.22,0,0,0,72.84,113.34Z" transform="translate(-37.42 -48.68)"/><path d="M121.45,84.52a13.16,13.16,0,0,1-.44,4.1,7.09,7.09,0,0,1-.76,1.79c-.85,1.36-1.78,2.66-2.67,4-1.16,1.7-2.34,3.38-3.46,5.11a15.35,15.35,0,0,1-2.93,3.39c-2.76,2.37-5.55,4.71-8.34,7-.52.45-1.07.85-.95,1.69a.82.82,0,0,1-.31.56c-.72.57-1.45,1.1-2.18,1.65a.58.58,0,0,1-.86-.08,1.8,1.8,0,0,1-.29-.39,22.47,22.47,0,0,0-2.8-3.77c-1.93-2.34-3.92-4.62-5.82-7C87.39,99.79,85.22,96.89,83,94Q80.24,90.48,77.44,87c-1.24-1.56-2.51-3.09-3.76-4.63-.6-.74-.55-.9.17-1.5,1.67-1.39,3.32-2.82,5-4.22a10.6,10.6,0,0,1,1-.74c.41-.27.85-.48,1-1a.89.89,0,0,1,.3-.38c.93-.85,1.86-1.72,2.81-2.55,1.18-1,2.35-2.05,3.58-3S90.11,67,91.44,66a8.14,8.14,0,0,1,1.43-.82c1.34-.57,2.69-1.12,4-1.65a9.22,9.22,0,0,1,5.25-.35c1.14.23,2.28.47,3.41.72a26.11,26.11,0,0,1,7.57,3.22,14.88,14.88,0,0,1,3.6,3.26c.23.27.45.55.69.82a14.78,14.78,0,0,1,3.41,6.86A28.47,28.47,0,0,1,121.45,84.52ZM117.52,84c-.14-1-.26-2-.41-3a14.05,14.05,0,0,0-1.34-5.28c-.28-.48-.47-1-.78-1.46-.78-1.09-1.62-2.13-2.42-3.2a4,4,0,0,0-1.75-1.33,8.21,8.21,0,0,1-1.93-1.11,4.73,4.73,0,0,0-2-1c-.94-.22-1.88-.42-2.82-.68a6.52,6.52,0,0,0-2.78-.11c-.76.14-1.53.21-2.3.35a12.2,12.2,0,0,0-2.15.5A28.86,28.86,0,0,0,91,70.87a66.61,66.61,0,0,0-7.06,5.83,6.41,6.41,0,0,1-.74.64,19.31,19.31,0,0,0-2.06,2.18.82.82,0,0,0-.17.35,2.16,2.16,0,0,0,.27,2.21c1,1.38,1.94,2.79,2.88,4.2.38.57.7,1.18,1.06,1.76.2.34.41.69.86.71a1.52,1.52,0,0,1,1.1.72l2.15,2.79c3.14,4.09,6.52,8,9.48,12.21a15.11,15.11,0,0,0,1.7,1.88c.41.43.53.45,1,.08q1.71-1.37,3.38-2.79c.76-.66,1.46-1.39,2.23-2a31.25,31.25,0,0,0,9.46-14.37,4.68,4.68,0,0,1,.38-1A4.47,4.47,0,0,0,117.52,84Zm-27,17.4h.2a2.22,2.22,0,0,0,1.63-2.42c-.15-.67-1-1.23-1.55-1a2.4,2.4,0,0,0-1.47,1.71A1.36,1.36,0,0,0,90.56,101.36Zm-9-11.54a1.65,1.65,0,0,0,1.69,1.73A1.51,1.51,0,0,0,84.7,90c.08-1.11-.7-1.49-1.76-1.61C82.17,88.27,81.63,88.94,81.61,89.82Z" transform="translate(-37.42 -48.68)"/><path d="M125.3,122.85a6.44,6.44,0,0,1-1.07,5.1c-1.31,2-2.63,4-4,6a23.88,23.88,0,0,1-2,2.39,7.38,7.38,0,0,1-2.66,1.75,2.88,2.88,0,0,1-3.28-1c-1.14-1.58-2.26-3.19-3.46-4.73a19,19,0,0,1-2.68-5.42,14.67,14.67,0,0,1-.48-2.3,1.68,1.68,0,0,1,0-.59c.09-.61.22-1.22.27-1.84a8.5,8.5,0,0,1,3.86-6.5,6.76,6.76,0,0,1,2.35-1.1c1-.24,1.91-.58,2.86-.88a2.31,2.31,0,0,1,1.51.09,13.14,13.14,0,0,0,1.77.46c.94.21,1.9.35,2.83.62a2.78,2.78,0,0,1,1.24.7,9.66,9.66,0,0,1,2.6,4.09,12.8,12.8,0,0,1,.31,1.73A13.52,13.52,0,0,1,125.3,122.85Zm-9.89,14.68a1.87,1.87,0,0,0,.48-.26c.87-.92,1.77-1.82,2.6-2.77,1.62-1.86,2.82-4.06,4.43-5.94a2.23,2.23,0,0,0,.2-.33c1.41-2.74,2.2-7.87-1-11.14a3.72,3.72,0,0,0-2-1.27c-1.11-.2-2.23-.36-3.34-.55a6.6,6.6,0,0,0-2.69.14,9.06,9.06,0,0,0-3.52,1.76,6.93,6.93,0,0,0-2.63,5.36,18.61,18.61,0,0,0,.59,4.47,2.42,2.42,0,0,0,.76,1.32,7.34,7.34,0,0,1,1.39,1.75c1.1,1.78,2.18,3.57,3.28,5.34C114.44,136.12,114.92,136.81,115.41,137.53Z" transform="translate(-37.42 -48.68)"/><path d="M71.92,83.11a10.1,10.1,0,0,1,.87.86c2.43,3.07,4.84,6.15,7.27,9.22.34.43.75.81,1.1,1.24.85,1,1.7,2.06,2.52,3.11q6.55,8.47,13.11,17a2.34,2.34,0,0,1,.58,1.9,14.93,14.93,0,0,0,0,2c-.22-.08-.37-.08-.44-.16-1.19-1.29-2.42-2.55-3.54-3.91-1.65-2-3.25-4.08-4.81-6.17-1-1.3-1.83-2.7-2.76-4-.47-.67-1-1.3-1.48-1.94-1.78-2.3-3.55-4.6-5.34-6.88-1.49-1.91-3-3.79-4.49-5.69-.54-.69-1-1.42-1.61-2.09a6.59,6.59,0,0,1-1.21-3,5.44,5.44,0,0,1,0-1.34Z" transform="translate(-37.42 -48.68)"/><path d="M99.24,120.16a9.55,9.55,0,0,1-.08-3,1.45,1.45,0,0,1,.54-.78c.91-.79,1.84-1.55,2.75-2.34a32.79,32.79,0,0,0,3.37-3c3.12-3.5,6.6-6.67,9.49-10.38.85-1.08,1.79-2.08,2.59-3.19s1.64-2.51,2.46-3.77a1.3,1.3,0,0,1,.59-.51,9.23,9.23,0,0,1-.34,1.4c-.76,1.81-1.49,3.64-2.34,5.4a18.6,18.6,0,0,1-3.13,4.48c-1.77,1.92-3.5,3.86-5.24,5.81a66.29,66.29,0,0,1-5.18,4.88l-4.26,3.88Z" transform="translate(-37.42 -48.68)"/><path d="M87.08,129c.06,1,.17,1.94.16,2.9a1.57,1.57,0,0,1-.54.88c-.72.7-1.49,1.36-2.24,2-2.29,2-4.56,4.06-6.86,6.08-1,.86-2,1.67-3,2.51-.72.6-1.46,1.18-2.16,1.82a2.24,2.24,0,0,1-1.56.66c-.77,0-1.55.07-2.32.08a5.55,5.55,0,0,1-.87-.09,4.52,4.52,0,0,1,.48-.59c2.09-1.76,4.19-3.5,6.27-5.26.7-.59,1.35-1.22,2-1.83l5-4.51,4.83-4.38c.16-.14.35-.26.52-.39Z" transform="translate(-37.42 -48.68)"/><path d="M223.07,182.94c.2.78.4,1.6.63,2.42a22.19,22.19,0,0,1,.66,7.12,15.47,15.47,0,0,1-2.52,8,45.4,45.4,0,0,1-4.93,6.19q-2.39,2.44-4.84,4.82a23.33,23.33,0,0,1-2,1.65.7.7,0,0,1-.9.06,6.41,6.41,0,0,1-1.4-1.17c-1.86-2.43-3.79-4.81-5.68-7.23-2.94-3.78-5.86-7.58-8.81-11.36-1.2-1.53-2.46-3-3.71-4.53a.7.7,0,0,1-.15-.8,5.46,5.46,0,0,1,.67-1.18,43,43,0,0,1,3.18-3.15c1.63-1.53,3.21-3.12,4.83-4.68a4.38,4.38,0,0,1,.83-.66q2.37-1.44,4.77-2.83a7,7,0,0,1,3.35-.82,23.82,23.82,0,0,1,5.76.69,20.14,20.14,0,0,1,5.35,2,6,6,0,0,1,1.65,1.45c.83,1,1.49,2.05,2.28,3A8,8,0,0,0,223.07,182.94Zm-6.95-.77a2,2,0,0,0-1.58-1.16,4.92,4.92,0,0,1-2.25-.83,2,2,0,0,0-1.29-.33,4,4,0,0,1-1.42-.09,2.69,2.69,0,0,0-1.61-.07c-1.06.29-2.11.61-3.18.87a8.6,8.6,0,0,0-3,1.39c-.61.43-1.19.91-1.77,1.37-2.52,2-4.74,4.33-7.18,6.41a3.34,3.34,0,0,0-.33.39,8.39,8.39,0,0,0,.55.74c.69.78,1.41,1.53,2.08,2.33,1.31,1.58,2.63,3.16,3.89,4.78,3.3,4.25,6.57,8.52,9.86,12.78.21.27.44.53.57.68.82-.74,1.57-1.4,2.3-2.09,1.25-1.18,2.44-2.44,3.76-3.54a13.37,13.37,0,0,0,2-2.08c.36-.46.73-.92,1.11-1.36a9.59,9.59,0,0,0,2.26-4.19,33.11,33.11,0,0,0,.47-3.6,11.57,11.57,0,0,0-.56-4.46,30.21,30.21,0,0,0-1.63-4,17.53,17.53,0,0,0-1.54-2.61" transform="translate(-37.42 -48.68)"/><path d="M190.52,196.75a2.61,2.61,0,0,1,.27-.88c.68-1.09,1.39-.9,2.24-.2a.33.33,0,0,1,.11.15,1.58,1.58,0,0,1-.36,1.63c-.34.47-.7,1-1.41.78S190.54,197.74,190.52,196.75Z" transform="translate(-37.42 -48.68)"/><path d="M200.45,205.72a1.89,1.89,0,0,1-1.45,1.74.78.78,0,0,1-.88-.44c-.2-.35-.42-.7-.13-1.09a2.3,2.3,0,0,1,1.56-1.05A.72.72,0,0,1,200.45,205.72Z" transform="translate(-37.42 -48.68)"/><path d="M223.34,233.69c-2.25-.06-3.41-1.49-3.42-3.67a4.74,4.74,0,0,1,2.72-4.53,2.29,2.29,0,0,1,1.48-.25,7,7,0,0,1,2.74.9,2.8,2.8,0,0,1,1.29,2.19A4.87,4.87,0,0,1,223.34,233.69Zm.94-6.77a2,2,0,0,0-2.58,1.19,3.63,3.63,0,0,0,.14,3.2,1,1,0,0,0,1.69.35,5.58,5.58,0,0,0,1.31-2.57,2.35,2.35,0,0,0-.36-1.68Z" transform="translate(-37.42 -48.68)"/><path d="M114.77,88c0-.75,0-1.31,0-1.86a8.36,8.36,0,0,0-.68-3.35c-.77-1.66-1.5-3.35-2.32-5a6.67,6.67,0,0,0-1.23-1.62c-.84-.86-1.75-1.65-2.61-2.49a5.49,5.49,0,0,0-2-1.29,14.37,14.37,0,0,0-1.57-.51,7.59,7.59,0,0,0-1.71-.18c-.78,0-1.54.16-2.32.21A6.65,6.65,0,0,0,97,73.17a47.88,47.88,0,0,0-6,4.51c-1.86,1.73-3.72,3.46-5.56,5.2-.4.37-.76.79-1.12,1.18a7.43,7.43,0,0,1-2.38-3l1.26-1.14c.69-.64,1.37-1.28,2.07-1.91,1.41-1.3,2.89-2.53,4.23-3.89a25.1,25.1,0,0,1,4.29-3.36,15,15,0,0,1,7.39-2.36,11.08,11.08,0,0,1,4.91.86,11,11,0,0,1,4.07,2.41,13,13,0,0,1,3.38,5.43c.13.49.27.93.85,1.07.2,0,.39.34.48.56a14.28,14.28,0,0,1,.89,6.66A6.27,6.27,0,0,1,114.77,88Z" transform="translate(-37.42 -48.68)"/><path d="M116.44,130.79a6.59,6.59,0,0,1-6.82-5.38A8.06,8.06,0,0,1,112,117.6a3.62,3.62,0,0,1,1.57-.94,3.92,3.92,0,0,0,.55-.18c2.33-1.08,4.53-.45,6.57.72a6.43,6.43,0,0,1,2.76,3.91,4.65,4.65,0,0,1-.15,3.55c-.47,1-.91,2-1.43,2.89A6.31,6.31,0,0,1,116.44,130.79Zm-4.56-6.54A2.64,2.64,0,0,0,113,127a4.07,4.07,0,0,1,.43.4,3.17,3.17,0,0,0,2.48.92,4.11,4.11,0,0,0,3.17-1.41,6.6,6.6,0,0,0,1.37-2.78,3.6,3.6,0,0,0-1.89-4.28,3.42,3.42,0,0,1-.42-.23,3.73,3.73,0,0,0-5.28,1.56,4.09,4.09,0,0,1-.4.67A3.38,3.38,0,0,0,111.88,124.25Z" transform="translate(-37.42 -48.68)"/><path d="M118.85,123.7a2.86,2.86,0,0,1-3.86,2.78,2.5,2.5,0,0,1-1.14-1,3.14,3.14,0,0,1,1.62-4.42C117.49,120.42,118.91,121.49,118.85,123.7Z" transform="translate(-37.42 -48.68)"/><circle cx="514.36" cy="165.58" r="7.92"/><circle class="cls-3" cx="514.36" cy="165.58" r="4.03"/><path d="M558.4,209.9l-5.74-10.23a1,1,0,0,0-1.76,0l-5.74,10.23,6.62-1.1Z" transform="translate(-37.42 -48.68)"/><rect x="417.63" y="293.5" width="116.85" height="116.85"/><path class="cls-3" d="M467,380.92V368.39a3.94,3.94,0,0,1,2.11-3.83,45.75,45.75,0,0,1,13.13-5.29,15.07,15.07,0,0,1,8.81.51,12.46,12.46,0,0,1,3.95,2.37c2.47,2.2,3.16,5.09,2.6,8.33a14.47,14.47,0,0,1-5.18,8.88c-3.46,2.86-7.1,5.49-10.65,8.23-1.34,1-2.63,2.14-4,3.17s-2.45,1.78-3.68,2.67l-3.6,2.61a7.68,7.68,0,0,1-.95.66c-1.12.61-2.06.23-2.27-1.08a30.44,30.44,0,0,1-.39-4.48c-.06-3.4,0-6.81,0-10.22Zm5.43-11.32c0,.39-.08.61-.08.83q0,7,0,13.95a12.65,12.65,0,0,0,.15,1.34c.47-.3.79-.49,1.09-.7,4.1-2.95,8.2-5.87,12.26-8.85a19.65,19.65,0,0,0,2.43-2.23,5.91,5.91,0,0,0,1.43-2.51c.78-2.73-.46-6.17-4-6.37a8.73,8.73,0,0,0-3.26.35c-2.79,1-5.52,2.1-8.27,3.21A14.84,14.84,0,0,0,472.43,369.6Z" transform="translate(-37.42 -48.68)"/><path class="cls-3" d="M533.13,358.86c2.67-.44,5.35-1,8.06-.44a17.27,17.27,0,0,1,10.63,6.18c4.31,5.45,2.61,12.26-3.13,16a3.21,3.21,0,0,1-4.7-.72,20.34,20.34,0,0,1-1.35-1.85,18.81,18.81,0,0,0-10.9-7.61c-1.06-.3-2.11-.6-3.14-1a5.32,5.32,0,0,1-2.58-1.92,4.35,4.35,0,0,1,.84-5.92,12.09,12.09,0,0,1,5.12-2.5C532.36,359,532.75,358.94,533.13,358.86ZM547,377.14a5,5,0,0,0,3.32-4.5,6.94,6.94,0,0,0-2.73-6.43c-3.5-2.66-7.3-4.64-12-4.2a9,9,0,0,0-5.15,2l.14,1.67c1.3,1.06,2.8,1.15,4.21,1.46a13.08,13.08,0,0,1,5.9,2.92,20.7,20.7,0,0,1,3.41,4c.53.77,1.06,1.54,1.62,2.29A1.56,1.56,0,0,0,547,377.14Z" transform="translate(-37.42 -48.68)"/><path class="cls-3" d="M555.19,444.72a1.7,1.7,0,0,1-1.57-1.31,15.26,15.26,0,0,1-.66-3.11c-.22-3.21-.27-6.44-.49-9.66a57.24,57.24,0,0,1,.21-9.44c0-.39,0-.8,0-1.35-.41.21-.75.41-1.1.56-1,.46-2.07.92-3.11,1.34a2.14,2.14,0,0,1-.87.12,1.5,1.5,0,0,1-1.49-2,4.27,4.27,0,0,1,.62-1.15,13.89,13.89,0,0,1,2.92-3c1.41-1.05,2.7-2.26,4.1-3.32,1-.73,2-1.33,3-2a5.23,5.23,0,0,1,.89-.43,1.94,1.94,0,0,1,2.76,1.47,7.82,7.82,0,0,1-.19,4A19,19,0,0,1,558.9,419a8.18,8.18,0,0,0-.92,3.68c0,3.93.06,7.85-.05,11.77-.06,2.27-.35,4.53-.62,6.78a10.54,10.54,0,0,1-.68,2.31A1.71,1.71,0,0,1,555.19,444.72Z" transform="translate(-37.42 -48.68)"/><path class="cls-3" d="M556,388.78c-.5.8-1,1.42-1.31,2.09-1.7,3.27-3.33,6.57-5.08,9.82-1,1.93-2.25,3.79-3.46,5.65-1.07,1.64-2.21,3.24-3.4,4.82-.67.89-1.47,1.71-2.23,2.54a2.71,2.71,0,0,1-.65.49,2.28,2.28,0,0,1-2.37.34,1.74,1.74,0,0,1-.81-2.15,8.94,8.94,0,0,1,2.06-3.6c1.46-1.73,3-3.4,4.41-5.15A49.12,49.12,0,0,0,550.56,391c.64-1.58,1.3-3.14,2-4.7a5.32,5.32,0,0,1,.79-1.31,2.34,2.34,0,0,1,2.59-.73,5.26,5.26,0,0,1,3.27,2c3.93,5.39,3,12-1.64,16.64a14.17,14.17,0,0,1-3.9,2.38,2.42,2.42,0,0,1-.46.13,2.17,2.17,0,0,1-2-.39,1.44,1.44,0,0,1-.21-1.88,9.92,9.92,0,0,1,1.35-1.76c1.09-1.16,2.24-2.28,3.35-3.42a2.79,2.79,0,0,0,.53-.72,12.37,12.37,0,0,0,1.41-5A4.71,4.71,0,0,0,556,388.78Z" transform="translate(-37.42 -48.68)"/><path class="cls-3" d="M523,444.84c-1.48,0-2.06-.42-2.1-1.67-.09-3-.2-6-.25-9a19.3,19.3,0,0,1,.85-6.21,13.63,13.63,0,0,1,1.06-2.46,6.87,6.87,0,0,1,3.91-3c2.55-.93,6,1.14,6,4A5.32,5.32,0,0,1,531.1,430a13.15,13.15,0,0,1-6.09,3.86c-.07,1.59-.14,3.25-.22,4.91-.07,1.21-.11,2.42-.27,3.62A2.93,2.93,0,0,1,523,444.84Zm4.87-20a4.58,4.58,0,0,0-2.35,5.21,18.76,18.76,0,0,0,1.89-1.53,6.54,6.54,0,0,0,1.21-1.72C529,426,528.72,425.45,527.82,424.84Z" transform="translate(-37.42 -48.68)"/><path class="cls-3" d="M510.8,439.86c-.73.06-1.45.16-2.18.16a12.8,12.8,0,0,1-3-.14,2.24,2.24,0,0,1-1.47-3.37,7.28,7.28,0,0,1,2.9-3.07c1-.63,2.11-1.19,3.17-1.75a5.4,5.4,0,0,1,2.75-.68,1.46,1.46,0,0,1,.52,2.87c-.58.22-1.2.33-1.79.52-1.18.4-2.36.78-3.51,1.24-.78.32-.88.5-1.24,1.44,1-.13,1.85-.24,2.73-.38a7,7,0,0,1,3.05.13,2.65,2.65,0,0,1,1.56,4.24,5.3,5.3,0,0,1-2.27,1.84,18.38,18.38,0,0,1-5.91,1.59c-1.63.2-3.28.26-4.91.51a13.69,13.69,0,0,1-3.25.38,4.21,4.21,0,0,1-1.07-.19,1.15,1.15,0,0,1-.41-2,3.6,3.6,0,0,1,1.52-.83c1.1-.25,2.23-.35,3.35-.51.43-.06.87-.1,1.3-.17,1.84-.28,3.68-.7,5.53-.82a5.35,5.35,0,0,0,2.72-.8Z" transform="translate(-37.42 -48.68)"/><path class="cls-3" d="M514.39,363.57l2.55,2.79a5.93,5.93,0,0,1,.47.53,1.58,1.58,0,0,1,0,2,1.35,1.35,0,0,1-1.9.23,16.37,16.37,0,0,1-5.18-5.54c-.53-.95-.07-1.8,1-2.24a35.15,35.15,0,0,0,3.42-1.56,4.73,4.73,0,0,0,1.08-1.06,1.49,1.49,0,0,0-1.35-1.13,20.27,20.27,0,0,0-6.28-.08c.15,1.48.33,2.89.43,4.3.15,2.15.28,4.31.36,6.47a2.25,2.25,0,0,1-1.52,2.49,2.08,2.08,0,0,1-1.61-1.55c-1.23-3.45-1.64-7.08-2.27-10.66a11,11,0,0,1,.14-2.6,6.2,6.2,0,0,1,3.87-1.8c2.26-.21,4.54-.23,6.82-.27a6,6,0,0,1,2.2.26,7.59,7.59,0,0,1,2.53,1.41,3.35,3.35,0,0,1,.29,4.77,9.5,9.5,0,0,1-2.25,1.89A24.11,24.11,0,0,1,514.39,363.57Z" transform="translate(-37.42 -48.68)"/><path class="cls-3" d="M474.76,452.34" transform="translate(-37.42 -48.68)"/><path class="cls-3" d="M465.87,409.83v32.8a5.38,5.38,0,0,0,5.38,5.38h7.41a5.35,5.35,0,0,0,3.25-1.09l7.13-5.41,25.58-19.4c3.29-2.48,6.74-4.75,9.91-7.38s6.11-5.68,9.11-8.55a4,4,0,0,0,.35-.36c1.53-1.82,11.9-15.08-4-26a23.66,23.66,0,0,0-21.09-3c-7.93,2.75-13.43,10.2-19.76,15.38-1,.85-2.09,1.68-3.16,2.49l-12.9,9.79" transform="translate(-37.42 -48.68)"/><ellipse class="cls-4" cx="501.61" cy="401.16" rx="0.71" ry="1" transform="translate(5.26 801.84) rotate(-83.05)"/><ellipse class="cls-4" cx="509.09" cy="406.77" rx="0.71" ry="1" transform="translate(6.27 814.2) rotate(-83.05)"/><ellipse class="cls-4" cx="501.93" cy="411.66" rx="0.71" ry="1" transform="translate(-4.89 811.38) rotate(-83.05)"/><ellipse class="cls-4" cx="494.88" cy="406.09" rx="0.71" ry="1" transform="translate(-5.55 799.5) rotate(-83.05)"/><circle class="cls-3" cx="502.49" cy="388.6" r="7.92"/><circle class="cls-5" cx="502.49" cy="388.6" r="4.03"/><path class="cls-3" d="M546.53,432.92l-5.74-10.23a1,1,0,0,0-1.76,0l-5.73,10.23,6.61-1.1Z" transform="translate(-37.42 -48.68)"/><rect class="cls-6" x="266.51" y="293.5" width="116.85" height="116.85" rx="11.23"/><path class="cls-3" d="M315.88,380.92V368.39a4,4,0,0,1,2.11-3.83,45.81,45.81,0,0,1,13.14-5.29,15,15,0,0,1,8.8.51,12.46,12.46,0,0,1,3.95,2.37c2.47,2.2,3.16,5.09,2.6,8.33a14.47,14.47,0,0,1-5.18,8.88c-3.46,2.86-7.1,5.49-10.65,8.23-1.34,1-2.63,2.14-4,3.17s-2.45,1.78-3.68,2.67l-3.6,2.61a7.68,7.68,0,0,1-.95.66c-1.12.61-2.06.23-2.27-1.08a30.44,30.44,0,0,1-.39-4.48c-.06-3.4,0-6.81,0-10.22Zm5.43-11.32c0,.39-.08.61-.08.83q0,7,0,13.95a12.65,12.65,0,0,0,.15,1.34c.47-.3.79-.49,1.1-.7,4.09-2.95,8.19-5.87,12.26-8.85a20.3,20.3,0,0,0,2.42-2.23,5.91,5.91,0,0,0,1.43-2.51c.78-2.73-.46-6.17-4-6.37a8.73,8.73,0,0,0-3.26.35c-2.79,1-5.52,2.1-8.27,3.21A14.84,14.84,0,0,0,321.31,369.6Z" transform="translate(-37.42 -48.68)"/><path class="cls-3" d="M382,358.86c2.67-.44,5.35-1,8.06-.44a17.27,17.27,0,0,1,10.63,6.18c4.31,5.45,2.61,12.26-3.13,16a3.21,3.21,0,0,1-4.7-.72,22.45,22.45,0,0,1-1.35-1.85,18.81,18.81,0,0,0-10.9-7.61c-1.06-.3-2.11-.6-3.14-1a5.32,5.32,0,0,1-2.58-1.92,4.36,4.36,0,0,1,.84-5.92,12.09,12.09,0,0,1,5.12-2.5C381.24,359,381.63,358.94,382,358.86Zm13.84,18.28a5,5,0,0,0,3.32-4.5,6.94,6.94,0,0,0-2.73-6.43c-3.5-2.66-7.3-4.64-12-4.2a9,9,0,0,0-5.15,2l.14,1.67c1.3,1.06,2.8,1.15,4.21,1.46a13.08,13.08,0,0,1,5.9,2.92,20.7,20.7,0,0,1,3.41,4c.53.77,1.06,1.54,1.62,2.29A1.56,1.56,0,0,0,395.85,377.14Z" transform="translate(-37.42 -48.68)"/><path class="cls-3" d="M404.07,444.72a1.7,1.7,0,0,1-1.57-1.31,15.26,15.26,0,0,1-.66-3.11c-.21-3.21-.27-6.44-.49-9.66a57.24,57.24,0,0,1,.21-9.44c0-.39,0-.8,0-1.35-.41.21-.74.41-1.1.56-1,.46-2.07.92-3.11,1.34a2.14,2.14,0,0,1-.87.12,1.49,1.49,0,0,1-1.48-2,4,4,0,0,1,.61-1.15,13.71,13.71,0,0,1,2.93-3c1.4-1.05,2.69-2.26,4.09-3.32,1-.73,2-1.33,3-2a5.23,5.23,0,0,1,.89-.43,1.94,1.94,0,0,1,2.76,1.47,7.82,7.82,0,0,1-.19,4,19,19,0,0,1-1.35,3.47,8.18,8.18,0,0,0-.92,3.68c0,3.93.06,7.85-.05,11.77-.06,2.27-.35,4.53-.62,6.78a10,10,0,0,1-.68,2.31A1.7,1.7,0,0,1,404.07,444.72Z" transform="translate(-37.42 -48.68)"/><path class="cls-3" d="M404.92,388.78c-.5.8-1,1.42-1.31,2.09-1.7,3.27-3.33,6.57-5.08,9.82-1,1.93-2.24,3.79-3.45,5.65-1.08,1.64-2.22,3.24-3.41,4.82a33.21,33.21,0,0,1-2.23,2.54,2.86,2.86,0,0,1-.64.49,2.3,2.3,0,0,1-2.38.34,1.74,1.74,0,0,1-.81-2.15,8.94,8.94,0,0,1,2.06-3.6c1.46-1.73,3-3.4,4.41-5.15A49.12,49.12,0,0,0,399.44,391c.64-1.58,1.3-3.14,2-4.7a5.32,5.32,0,0,1,.79-1.31,2.34,2.34,0,0,1,2.59-.73,5.26,5.26,0,0,1,3.27,2c3.93,5.39,3,12-1.63,16.64a14.22,14.22,0,0,1-3.91,2.38,2.42,2.42,0,0,1-.46.13,2.15,2.15,0,0,1-2-.39,1.43,1.43,0,0,1-.22-1.88,9.92,9.92,0,0,1,1.35-1.76c1.09-1.16,2.24-2.28,3.35-3.42a2.79,2.79,0,0,0,.53-.72,12.22,12.22,0,0,0,1.41-5A4.71,4.71,0,0,0,404.92,388.78Z" transform="translate(-37.42 -48.68)"/><path class="cls-3" d="M371.83,444.84c-1.48,0-2.06-.42-2.1-1.67-.09-3-.2-6-.25-9a19.3,19.3,0,0,1,.85-6.21,13.63,13.63,0,0,1,1.06-2.46,6.89,6.89,0,0,1,3.92-3c2.54-.93,6,1.14,6,4A5.32,5.32,0,0,1,380,430a13.15,13.15,0,0,1-6.09,3.86c-.07,1.59-.14,3.25-.22,4.91-.07,1.21-.11,2.42-.27,3.62A2.93,2.93,0,0,1,371.83,444.84Zm4.88-20a4.56,4.56,0,0,0-2.35,5.21,19.79,19.79,0,0,0,1.88-1.53,6.54,6.54,0,0,0,1.21-1.72C377.85,426,377.61,425.45,376.71,424.84Z" transform="translate(-37.42 -48.68)"/><path class="cls-3" d="M359.68,439.86c-.73.06-1.45.16-2.18.16a12.8,12.8,0,0,1-3-.14,2.24,2.24,0,0,1-1.47-3.37,7.28,7.28,0,0,1,2.9-3.07c1-.63,2.11-1.19,3.17-1.75a5.4,5.4,0,0,1,2.75-.68,1.46,1.46,0,0,1,.52,2.87c-.58.22-1.2.33-1.79.52-1.18.4-2.36.78-3.51,1.24-.78.32-.88.5-1.24,1.44,1-.13,1.85-.24,2.73-.38a7,7,0,0,1,3.05.13,2.65,2.65,0,0,1,1.56,4.24,5.3,5.3,0,0,1-2.27,1.84,18.39,18.39,0,0,1-5.9,1.59c-1.64.2-3.29.26-4.91.51a13.83,13.83,0,0,1-3.26.38,4.21,4.21,0,0,1-1.07-.19,1.15,1.15,0,0,1-.41-2,3.6,3.6,0,0,1,1.52-.83c1.1-.25,2.23-.35,3.35-.51.43-.06.87-.1,1.3-.17,1.85-.28,3.68-.7,5.53-.82a5.35,5.35,0,0,0,2.72-.8Z" transform="translate(-37.42 -48.68)"/><path class="cls-3" d="M363.27,363.57c.9,1,1.73,1.88,2.55,2.79a4.69,4.69,0,0,1,.47.53,1.56,1.56,0,0,1,0,2,1.35,1.35,0,0,1-1.9.23,16.37,16.37,0,0,1-5.18-5.54c-.53-.95-.07-1.8,1-2.24a36.45,36.45,0,0,0,3.43-1.56,4.89,4.89,0,0,0,1.07-1.06,1.49,1.49,0,0,0-1.35-1.13,20.27,20.27,0,0,0-6.28-.08c.15,1.48.33,2.89.43,4.3q.24,3.22.36,6.47a2.25,2.25,0,0,1-1.52,2.49,2.08,2.08,0,0,1-1.61-1.55c-1.23-3.45-1.64-7.08-2.27-10.66a11,11,0,0,1,.14-2.6,6.2,6.2,0,0,1,3.87-1.8c2.26-.21,4.54-.23,6.82-.27a6,6,0,0,1,2.2.26,7.59,7.59,0,0,1,2.53,1.41,3.35,3.35,0,0,1,.29,4.77,9.5,9.5,0,0,1-2.25,1.89A24.11,24.11,0,0,1,363.27,363.57Z" transform="translate(-37.42 -48.68)"/><path class="cls-3" d="M323.64,452.34" transform="translate(-37.42 -48.68)"/><path class="cls-3" d="M314.75,409.83V443.9a4.11,4.11,0,0,0,4.11,4.11H328a4.09,4.09,0,0,0,2.48-.83l7.47-5.67,25.59-19.4c3.28-2.48,6.73-4.75,9.9-7.38s6.14-5.7,9.15-8.59a3.57,3.57,0,0,0,.27-.28c1.38-1.6,12.09-15-3.94-26a23.66,23.66,0,0,0-21.09-3c-7.93,2.75-13.43,10.2-19.76,15.38-1,.85-2.09,1.68-3.16,2.49L322,404.5" transform="translate(-37.42 -48.68)"/><circle class="cls-3" cx="351.37" cy="388.6" r="7.92"/><ellipse class="cls-7" cx="350.49" cy="401.16" rx="0.71" ry="1" transform="translate(-127.57 651.83) rotate(-83.05)"/><ellipse class="cls-8" cx="357.97" cy="406.77" rx="0.71" ry="1" transform="translate(-126.56 664.19) rotate(-83.05)"/><ellipse class="cls-9" cx="350.81" cy="411.66" rx="0.71" ry="1" transform="translate(-137.71 661.38) rotate(-83.05)"/><ellipse class="cls-10" cx="343.76" cy="406.09" rx="0.71" ry="1" transform="translate(-138.38 649.49) rotate(-83.05)"/><circle class="cls-11" cx="351.37" cy="388.6" r="4.03"/><path class="cls-3" d="M395.41,432.92l-5.73-10.23a1,1,0,0,0-1.77,0l-5.73,10.23,6.61-1.1Z" transform="translate(-37.42 -48.68)"/><rect class="cls-5" x="127.3" y="294.06" width="116.85" height="116.85" rx="11.23"/><path class="cls-3" d="M176.66,381.47V369.71c0-.25,0-.51,0-.77a4,4,0,0,1,2.11-3.83,45.81,45.81,0,0,1,13.14-5.29,15.12,15.12,0,0,1,8.8.51,12.64,12.64,0,0,1,3.95,2.37c2.47,2.2,3.16,5.09,2.6,8.33a14.48,14.48,0,0,1-5.17,8.89c-3.47,2.86-7.11,5.48-10.66,8.22-1.34,1-2.63,2.15-4,3.17s-2.46,1.78-3.69,2.67l-3.59,2.62c-.32.22-.62.47-1,.66a1.39,1.39,0,0,1-2.27-1.09,31.85,31.85,0,0,1-.39-4.47c-.05-3.41,0-6.82,0-10.23Zm5.43-11.32c0,.4-.08.61-.08.83,0,4.65,0,9.3,0,13.95,0,.38.08.77.14,1.34.47-.3.8-.48,1.1-.7,4.09-2.94,8.19-5.87,12.26-8.85a20.3,20.3,0,0,0,2.42-2.23,5.71,5.71,0,0,0,1.43-2.51c.79-2.73-.45-6.17-4-6.37a8.76,8.76,0,0,0-3.27.35c-2.79,1-5.52,2.11-8.26,3.21A15.63,15.63,0,0,0,182.09,370.15Z" transform="translate(-37.42 -48.68)"/><path class="cls-3" d="M242.79,359.41c2.68-.44,5.36-1,8.06-.44a17.29,17.29,0,0,1,10.63,6.18c4.32,5.46,2.62,12.26-3.12,16a3.21,3.21,0,0,1-4.71-.72,20.87,20.87,0,0,1-1.35-1.85A18.78,18.78,0,0,0,241.4,371c-1.05-.29-2.11-.6-3.14-1a5.25,5.25,0,0,1-2.57-1.92,4.34,4.34,0,0,1,.84-5.91,12,12,0,0,1,5.11-2.51C242,359.56,242.41,359.49,242.79,359.41Zm13.84,18.28a5.06,5.06,0,0,0,3.33-4.5,7,7,0,0,0-2.74-6.43c-3.5-2.66-7.3-4.64-12-4.2a9,9,0,0,0-5.15,2l.15,1.68c1.29,1.06,2.79,1.14,4.2,1.46a13,13,0,0,1,5.9,2.91,21,21,0,0,1,3.41,3.95c.53.77,1.06,1.54,1.62,2.3A1.58,1.58,0,0,0,256.63,377.69Z" transform="translate(-37.42 -48.68)"/><path class="cls-3" d="M264.85,445.27a1.72,1.72,0,0,1-1.57-1.31,15.31,15.31,0,0,1-.66-3.1c-.21-3.22-.27-6.45-.49-9.66a57.22,57.22,0,0,1,.21-9.44c0-.4,0-.8,0-1.36-.41.22-.74.41-1.09.57-1,.45-2.07.91-3.12,1.34a2.27,2.27,0,0,1-.86.12,1.5,1.5,0,0,1-1.49-2,4,4,0,0,1,.62-1.16,13.61,13.61,0,0,1,2.92-2.95c1.4-1.06,2.69-2.27,4.09-3.33,1-.73,2-1.33,3-2a4.83,4.83,0,0,1,.89-.42A1.94,1.94,0,0,1,270.1,412a7.86,7.86,0,0,1-.19,4,18.94,18.94,0,0,1-1.35,3.46,8.19,8.19,0,0,0-.92,3.69c0,3.92.06,7.84,0,11.76-.06,2.27-.36,4.53-.63,6.78a10.76,10.76,0,0,1-.67,2.32A1.69,1.69,0,0,1,264.85,445.27Z" transform="translate(-37.42 -48.68)"/><path class="cls-3" d="M265.7,389.33c-.5.8-1,1.43-1.31,2.09-1.7,3.27-3.32,6.58-5.08,9.82-1,1.93-2.24,3.8-3.45,5.65-1.07,1.64-2.22,3.25-3.41,4.83-.66.89-1.47,1.7-2.23,2.54a2.86,2.86,0,0,1-.64.49,2.3,2.3,0,0,1-2.38.33,1.73,1.73,0,0,1-.8-2.15,9,9,0,0,1,2-3.6c1.46-1.72,3-3.4,4.41-5.14a49.05,49.05,0,0,0,7.36-12.62c.64-1.57,1.31-3.14,2-4.69a5.41,5.41,0,0,1,.8-1.32,2.34,2.34,0,0,1,2.58-.73,5.31,5.31,0,0,1,3.27,2c3.93,5.39,3,12-1.63,16.64a14,14,0,0,1-3.91,2.38,1.43,1.43,0,0,1-.46.13,2.15,2.15,0,0,1-2-.38,1.45,1.45,0,0,1-.22-1.89A9.87,9.87,0,0,1,262,402c1.08-1.16,2.23-2.28,3.34-3.42a2.92,2.92,0,0,0,.53-.71,12.15,12.15,0,0,0,1.41-5A4.67,4.67,0,0,0,265.7,389.33Z" transform="translate(-37.42 -48.68)"/><path class="cls-3" d="M232.61,445.39c-1.48,0-2.06-.41-2.1-1.66-.09-3-.2-6-.25-9a19.26,19.26,0,0,1,.85-6.21,14.14,14.14,0,0,1,1.06-2.47,6.89,6.89,0,0,1,3.92-3c2.55-.93,6,1.14,6,4a5.37,5.37,0,0,1-1.36,3.56,13.26,13.26,0,0,1-6.09,3.86c-.07,1.59-.13,3.25-.22,4.91-.07,1.2-.11,2.42-.26,3.61A2.91,2.91,0,0,1,232.61,445.39Zm4.88-20a4.58,4.58,0,0,0-2.35,5.21,19.79,19.79,0,0,0,1.88-1.53,6.35,6.35,0,0,0,1.22-1.72C238.63,426.51,238.39,426,237.49,425.39Z" transform="translate(-37.42 -48.68)"/><path class="cls-3" d="M220.46,440.41c-.72.06-1.45.16-2.18.17a13.37,13.37,0,0,1-3-.15,2.25,2.25,0,0,1-1.47-3.37,7.24,7.24,0,0,1,2.91-3.07c1-.62,2.1-1.19,3.17-1.75a5.44,5.44,0,0,1,2.74-.68,1.46,1.46,0,0,1,.52,2.87c-.58.23-1.2.33-1.79.53-1.17.39-2.36.77-3.51,1.24-.78.31-.87.49-1.24,1.43,1-.13,1.85-.24,2.73-.38a6.83,6.83,0,0,1,3,.14,2.64,2.64,0,0,1,1.57,4.23,5.42,5.42,0,0,1-2.28,1.85,18.85,18.85,0,0,1-5.9,1.59c-1.64.19-3.29.25-4.91.5a13.69,13.69,0,0,1-3.25.38,3.82,3.82,0,0,1-1.07-.19,1.15,1.15,0,0,1-.41-2,3.44,3.44,0,0,1,1.51-.82c1.1-.25,2.23-.36,3.35-.52.44-.06.87-.09,1.31-.16,1.84-.29,3.67-.71,5.52-.83a5.25,5.25,0,0,0,2.72-.8Z" transform="translate(-37.42 -48.68)"/><path class="cls-3" d="M224.05,364.13l2.55,2.78a5.76,5.76,0,0,1,.47.53,1.58,1.58,0,0,1,0,2,1.35,1.35,0,0,1-1.9.23,16.28,16.28,0,0,1-5.17-5.55c-.54-.94-.07-1.8,1-2.24s2.31-1,3.42-1.55a5.48,5.48,0,0,0,1.08-1.07,1.51,1.51,0,0,0-1.36-1.13,20.28,20.28,0,0,0-6.28-.07c.15,1.47.34,2.88.44,4.29q.22,3.23.35,6.47a2.25,2.25,0,0,1-1.51,2.49,2.07,2.07,0,0,1-1.61-1.55c-1.24-3.45-1.64-7.08-2.28-10.66a11,11,0,0,1,.14-2.6,6.31,6.31,0,0,1,3.87-1.8c2.26-.21,4.54-.23,6.82-.27a6,6,0,0,1,2.2.26,7.85,7.85,0,0,1,2.53,1.41,3.35,3.35,0,0,1,.29,4.77,9.45,9.45,0,0,1-2.24,1.89A27,27,0,0,1,224.05,364.13Z" transform="translate(-37.42 -48.68)"/><path class="cls-3" d="M184.43,452.89" transform="translate(-37.42 -48.68)"/><path class="cls-3" d="M175.53,410.39v34.07a4.1,4.1,0,0,0,4.11,4.1h9.11a4.14,4.14,0,0,0,2.49-.83l7.46-5.66,25.59-19.4c3.28-2.49,6.74-4.75,9.91-7.39s6.14-5.7,9.15-8.59a3.31,3.31,0,0,0,.26-.27c1.38-1.61,12.09-15-3.93-26a23.7,23.7,0,0,0-21.09-3c-7.94,2.76-13.44,10.2-19.77,15.38q-1.56,1.28-3.15,2.49l-12.91,9.79" transform="translate(-37.42 -48.68)"/><circle class="cls-3" cx="212.16" cy="389.15" r="7.92"/><ellipse class="cls-12" cx="211.27" cy="401.71" rx="0.71" ry="1" transform="translate(-250.48 514.13) rotate(-83.05)"/><ellipse class="cls-12" cx="218.75" cy="407.32" rx="0.71" ry="1" transform="translate(-249.47 526.48) rotate(-83.05)"/><ellipse class="cls-12" cx="211.59" cy="412.22" rx="0.71" ry="1" transform="translate(-260.63 523.67) rotate(-83.05)"/><ellipse class="cls-12" cx="204.54" cy="406.65" rx="0.71" ry="1" transform="translate(-261.29 511.78) rotate(-83.05)"/><circle class="cls-4" cx="212.16" cy="389.15" r="4.03"/><path class="cls-3" d="M256.19,433.48l-5.73-10.24a1,1,0,0,0-1.77,0L243,433.48l6.62-1.11Z" transform="translate(-37.42 -48.68)"/><rect class="cls-1" x="108.74" y="107.03" width="98.45" height="100.06"/><path class="cls-1" d="M180.27,188.81" transform="translate(-37.42 -48.68)"/></svg>